<svg width="98" height="89" viewBox="0 0 98 89" fill="none" xmlns="http://www.w3.org/2000/svg">
<path d="M0 52.0398L21 39.0398V88.0398H0V52.0398Z" fill="white"/>
<path d="M23 39.0398L44 52.0398V88.0398H23V39.0398Z" fill="white"/>
<path d="M46 52.0398L67 34.5398V88.0398H46V52.0398Z" fill="white"/>
<path d="M69 33.5398L90 17.5398V88.0398H69V33.5398Z" fill="white"/>
<path d="M0.402358 34.0399L22.5 18.5398V35.5398L0.400378 49.8985L0.402358 34.0399Z" fill="white"/>
<path d="M43.9981 49.041L22.3569 35.4871L22.4994 18.5411L43.998 34.0411L43.9981 49.041Z" fill="white"/>
<path d="M43.998 34.0411L43.9981 49.041L89.9999 15.5399L81.4984 7.04054L43.998 34.0411Z" fill="white"/>
<path d="M97.5163 0L95.3408 21.159L76.3573 2.17549L97.5163 0Z" fill="white"/>
</svg>
