<svg width="33" height="70" viewBox="0 0 33 70" fill="none" xmlns="http://www.w3.org/2000/svg">
<path d="M33 48.6782C33 31.2184 9.27873 31.2184 9.27873 20.1954C9.27873 16.1724 11.9413 13.5977 16.5403 13.5977C20.8973 13.5977 23.7213 16.1724 23.8826 21.5632H32.1932C31.9511 13.1149 27.3521 7.24138 19.6064 6.03448V0H12.9902V6.11494C5.48655 7.4023 0.968215 12.954 0.968215 20.0345C0.968215 36.7701 24.6088 37.4138 24.6088 48.5977C24.6088 53.1034 21.9462 56.3218 16.5403 56.3218C11.5379 56.3218 8.3912 53.5057 8.31051 47.7126H0C0.0806846 56.7241 5.00245 62.5977 12.9902 63.9655V70H19.6064V63.9655C28.2396 62.7586 33 56.1609 33 48.6782Z" fill="black"/>
<path d="M13 2H19.6V68H13V2Z" fill="black"/>
</svg>
