<svg width="21" height="20" viewBox="0 0 21 20" fill="none" xmlns="http://www.w3.org/2000/svg">
<path d="M16.917 0L17.936 3.00395H8.62532L16.917 0Z" fill="white"/>
<path fill-rule="evenodd" clip-rule="evenodd" d="M0 5.61265C0 4.73947 0.70785 4.03162 1.58103 4.03162H18.7352C19.6084 4.03162 20.3162 4.73947 20.3162 5.61265V8.85375H13.2016C12.3284 8.85375 11.6206 9.56161 11.6206 10.4348V12.4111C11.6206 13.2842 12.3284 13.9921 13.2016 13.9921H20.3162V18.419C20.3162 19.2922 19.6084 20 18.7352 20H1.58103C0.70785 20 0 19.2922 0 18.419V5.61265ZM12.8063 10.6719C12.8063 10.3227 13.0895 10.0395 13.4387 10.0395H20.3162V12.8063H13.4387C13.0895 12.8063 12.8063 12.5232 12.8063 12.1739V10.6719ZM14.1897 12.332C14.6918 12.332 15.0988 11.925 15.0988 11.4229C15.0988 10.9208 14.6918 10.5138 14.1897 10.5138C13.6876 10.5138 13.2806 10.9208 13.2806 11.4229C13.2806 11.925 13.6876 12.332 14.1897 12.332Z" fill="white"/>
</svg>
