<svg width="80" height="95" viewBox="0 0 80 95" fill="none" xmlns="http://www.w3.org/2000/svg">
<path fill-rule="evenodd" clip-rule="evenodd" d="M2.99209 12.9535L38.4969 0.220331C39.3053 -0.0695741 40.1887 -0.073504 40.9996 0.2092L77.4842 12.9286C79.0266 13.4663 80.0435 14.9397 79.9986 16.5717L78.9834 53.434C78.9608 54.2533 78.6724 55.0401 78.1549 55.676C73.1407 61.838 45.8715 95 39.7463 95C34.1532 95 6.20054 62.0168 0.862834 55.6572C0.288743 54.9732 -0.0119564 54.1127 0.000364002 53.22L0.508115 16.4306C0.52969 14.8673 1.51966 13.4816 2.99209 12.9535ZM38.6494 9.96701L11.1319 19.8236C9.65876 20.3512 8.66813 21.7373 8.64652 23.3011L8.25352 51.7412C8.24118 52.6347 8.53312 53.4848 9.10858 54.1687C13.7542 59.6897 35.501 85.2523 39.8974 85.2523C44.7157 85.2523 65.9658 59.5125 70.328 54.1657C70.8467 53.5299 71.1246 52.7562 71.1472 51.9361L71.9329 23.4423C71.9779 21.8098 70.9603 20.336 69.4172 19.7986L41.1494 9.95591C40.3393 9.67384 39.4569 9.67776 38.6494 9.96701Z" fill="#F7F7F7"/>
<path d="M11.1319 19.8236L38.6494 9.96701C39.4569 9.67776 40.3393 9.67384 41.1494 9.95591L69.4172 19.7986C70.9603 20.336 71.9779 21.8098 71.9329 23.4423L71.1472 51.9361C71.1246 52.7562 70.8467 53.5299 70.328 54.1657C65.9658 59.5125 44.7157 85.2523 39.8974 85.2523C35.501 85.2523 13.7542 59.6897 9.10858 54.1687C8.53312 53.4848 8.24118 52.6347 8.25352 51.7412L8.64652 23.3011C8.66813 21.7373 9.65876 20.3512 11.1319 19.8236Z" fill="white"/>
</svg>
