<svg width="20" height="20" viewBox="0 0 20 20" fill="none" xmlns="http://www.w3.org/2000/svg">
<path fill-rule="evenodd" clip-rule="evenodd" d="M10 20C11.7618 20 13.4171 19.5444 14.8547 18.7446C14.8433 18.7322 14.0236 17.8361 13.6124 17.3864C12.5251 17.9344 11.2982 18.2427 10 18.2427C5.53131 18.2427 1.90871 14.5898 1.90871 10.0837C1.90871 8.32134 2.46283 6.6895 3.40497 5.35565L1.98672 4.01674C0.738936 5.68518 0 7.7563 0 10C0 15.5228 4.47715 20 10 20ZM5.71426 0.962343C7.0132 0.345278 8.46628 0 10 0C15.5228 0 20 4.47715 20 10C20 12.1965 19.2918 14.2497 18.0913 15.8996L16.7635 14.5637C17.6029 13.2778 18.0913 11.7383 18.0913 10.0837C18.0913 5.57759 14.4687 1.92469 10 1.92469C8.80086 1.92469 7.66264 2.18772 6.639 2.6597L5.71426 0.962343Z" fill="white"/>
<path d="M4.85883 2.38648C4.9537 2.3841 5.03123 2.46228 5.02887 2.55794L4.92768 6.6688C4.92406 6.81587 4.74756 6.88702 4.6444 6.78299L0.668843 2.77417C0.565683 2.67015 0.636241 2.49217 0.782087 2.48852L4.85883 2.38648Z" fill="white"/>
<path d="M15.246 17.6342C15.1512 17.6373 15.0731 17.5597 15.0747 17.464L15.1444 13.3525C15.1469 13.2054 15.3229 13.1329 15.4268 13.2361L19.4329 17.2139C19.5369 17.3171 19.4677 17.4956 19.3219 17.5004L15.246 17.6342Z" fill="white"/>
<path fill-rule="evenodd" clip-rule="evenodd" d="M10 15.3138C12.9104 15.3138 15.2697 12.9347 15.2697 10C15.2697 7.06527 12.9104 4.68619 10 4.68619C7.08962 4.68619 4.73029 7.06527 4.73029 10C4.73029 12.9347 7.08962 15.3138 10 15.3138ZM10.2313 10.0262C10.9022 10.4229 11.6598 10.871 11.6598 11.8828C11.6598 12.6611 11.1701 13.3473 10.2822 13.4728V14.1004H9.60166V13.4728C8.78008 13.3305 8.27386 12.7197 8.26556 11.7824H9.12033C9.12863 12.3849 9.45228 12.6778 9.96681 12.6778C10.5228 12.6778 10.7967 12.3431 10.7967 11.8745C10.7967 11.3513 10.3048 11.0499 9.76344 10.7182C9.10126 10.3125 8.36515 9.86146 8.36515 8.90377C8.36515 8.16736 8.82988 7.58996 9.60166 7.45607V6.82008H10.2822V7.4477C11.0788 7.57322 11.5519 8.1841 11.5768 9.06276H10.722C10.7054 8.50209 10.4149 8.23431 9.96681 8.23431C9.49378 8.23431 9.21992 8.50209 9.21992 8.9205C9.21992 9.4281 9.69822 9.71096 10.2313 10.0262Z" fill="white"/>
</svg>
