<svg width="26" height="20" viewBox="0 0 26 20" fill="none" xmlns="http://www.w3.org/2000/svg">
<path d="M0 1.07143C0 0.479695 0.477917 0 1.06746 0H24.1957C24.7852 0 25.2632 0.479695 25.2632 1.07143V1.42857C25.2632 2.02031 24.7852 2.5 24.1957 2.5H1.06746C0.477916 2.5 0 2.02031 0 1.42857V1.07143Z" fill="white"/>
<path fill-rule="evenodd" clip-rule="evenodd" d="M5.33729 1.42857C4.74775 1.42857 4.26983 1.90827 4.26983 2.5V18.9286C4.26983 19.5203 4.74775 20 5.33729 20H19.9259C20.5154 20 20.9933 19.5203 20.9933 18.9286V2.5C20.9933 1.90827 20.5154 1.42857 19.9259 1.42857H5.33729ZM12.935 10.4895C14.0157 11.1283 15.2817 11.8765 15.2817 13.5879C15.2817 14.8907 14.4975 15.9493 13.0913 16.2071V17.225H11.7121V16.1936C10.3736 15.9493 9.56228 14.9586 9.54876 13.3843H11.2524C11.2659 14.2393 11.7121 14.6329 12.4288 14.6329C13.1859 14.6329 13.551 14.185 13.551 13.5743C13.551 12.8213 12.8233 12.3714 12.0036 11.8646C10.9472 11.2115 9.73806 10.464 9.73806 8.85143C9.73806 7.64357 10.4682 6.70714 11.7121 6.44929V5.41786H13.0913V6.44929C14.3758 6.69357 15.133 7.67071 15.1465 9.12286H13.4428C13.4293 8.36286 13.0507 7.99643 12.4152 7.99643C11.7933 7.99643 11.4282 8.34929 11.4282 8.89214C11.4282 9.59885 12.1302 10.0138 12.935 10.4895Z" fill="white"/>
</svg>
